<?xml version="1.0" encoding="UTF-8" standalone="no"?>
<!DOCTYPE svg PUBLIC "-//W3C//DTD SVG 1.1//EN"
 "http://www.w3.org/Graphics/SVG/1.1/DTD/svg11.dtd">
<!-- Generated by graphviz version 7.1.0 (0)
 -->
<!-- Pages: 1 -->
<svg width="303pt" height="151pt"
 viewBox="0.00 0.00 303.07 151.48" xmlns="http://www.w3.org/2000/svg" xmlns:xlink="http://www.w3.org/1999/xlink">
<g id="graph0" class="graph" transform="scale(1 1) rotate(0) translate(4 147.48)">
<polygon fill="white" stroke="none" points="-4,4 -4,-147.48 299.07,-147.48 299.07,4 -4,4"/>
<!-- 1 -->
<g id="node1" class="node">
<title>1</title>
<ellipse fill="none" stroke="gray" cx="49.5" cy="-116.61" rx="49.49" ry="25.41"/>
<text text-anchor="start" x="29.5" y="-120.41" font-family="Times,serif" text-decoration="underline" font-size="14.00" fill="gray">deleted</text>
<text text-anchor="start" x="22.5" y="-106.41" font-family="Times,serif" text-decoration="underline" font-size="14.00" fill="gray">07e473b6</text>
</g>
<!-- 2 -->
<g id="node2" class="node">
<title>2</title>
<ellipse fill="none" stroke="black" cx="108.5" cy="-26.87" rx="55.31" ry="26.74"/>
<text text-anchor="start" x="93" y="-30.67" font-family="Times,serif" font-size="14.00">leaf 2</text>
<text text-anchor="start" x="77.5" y="-15.67" font-family="Times,serif" font-size="14.00">3,da13f773</text>
</g>
<!-- 3 -->
<g id="node3" class="node">
<title>3</title>
<ellipse fill="none" stroke="black" cx="238.5" cy="-26.87" rx="56.64" ry="26.74"/>
<text text-anchor="start" x="223" y="-30.67" font-family="Times,serif" font-size="14.00">leaf 1</text>
<text text-anchor="start" x="206.5" y="-15.67" font-family="Times,serif" font-size="14.00">2,5d7493e7</text>
</g>
<!-- 4 -->
<g id="node4" class="node">
<title>4</title>
<ellipse fill="none" stroke="black" cx="173.5" cy="-116.61" rx="56.64" ry="26.74"/>
<text text-anchor="start" x="162.5" y="-120.41" font-family="Times,serif" font-size="14.00">root</text>
<text text-anchor="start" x="141.5" y="-105.41" font-family="Times,serif" font-size="14.00">1,7c508b22</text>
</g>
<!-- 4&#45;&gt;2 -->
<g id="edge1" class="edge">
<title>4&#45;&gt;2</title>
<path fill="none" stroke="black" d="M155.39,-91.17C148.62,-82.02 140.8,-71.47 133.51,-61.63"/>
<polygon fill="black" stroke="black" points="136.4,-59.65 127.63,-53.7 130.77,-63.82 136.4,-59.65"/>
</g>
<!-- 4&#45;&gt;3 -->
<g id="edge2" class="edge">
<title>4&#45;&gt;3</title>
<path fill="none" stroke="black" d="M191.6,-91.17C198.38,-82.02 206.2,-71.47 213.49,-61.63"/>
<polygon fill="black" stroke="black" points="216.22,-63.82 219.36,-53.7 210.6,-59.65 216.22,-63.82"/>
</g>
</g>
</svg>
