<?xml version="1.0" encoding="UTF-8" standalone="no"?>
<!DOCTYPE svg PUBLIC "-//W3C//DTD SVG 1.1//EN"
 "http://www.w3.org/Graphics/SVG/1.1/DTD/svg11.dtd">
<!-- Generated by graphviz version 7.1.0 (0)
 -->
<!-- Pages: 1 -->
<svg width="250pt" height="151pt"
 viewBox="0.00 0.00 249.72 151.48" xmlns="http://www.w3.org/2000/svg" xmlns:xlink="http://www.w3.org/1999/xlink">
<g id="graph0" class="graph" transform="scale(1 1) rotate(0) translate(4 147.48)">
<polygon fill="white" stroke="none" points="-4,4 -4,-147.48 245.72,-147.48 245.72,4 -4,4"/>
<!-- 1 -->
<g id="node1" class="node">
<title>1</title>
<ellipse fill="none" stroke="black" cx="121.57" cy="-116.61" rx="56.64" ry="26.74"/>
<text text-anchor="start" x="110.57" y="-120.41" font-family="Times,serif" font-size="14.00">root</text>
<text text-anchor="start" x="89.57" y="-105.41" font-family="Times,serif" font-size="14.00">1,7c508b22</text>
</g>
<!-- 2 -->
<g id="node2" class="node">
<title>2</title>
<ellipse fill="none" stroke="black" cx="56.57" cy="-26.87" rx="56.64" ry="26.74"/>
<text text-anchor="start" x="41.07" y="-30.67" font-family="Times,serif" font-size="14.00">leaf 1</text>
<text text-anchor="start" x="24.57" y="-15.67" font-family="Times,serif" font-size="14.00">2,5d7493e7</text>
</g>
<!-- 1&#45;&gt;2 -->
<g id="edge1" class="edge">
<title>1&#45;&gt;2</title>
<path fill="none" stroke="black" d="M103.46,-91.17C96.69,-82.02 88.87,-71.47 81.58,-61.63"/>
<polygon fill="black" stroke="black" points="84.47,-59.65 75.7,-53.7 78.84,-63.82 84.47,-59.65"/>
</g>
<!-- 3 -->
<g id="node3" class="node">
<title>3</title>
<ellipse fill="none" stroke="black" cx="186.57" cy="-26.87" rx="55.31" ry="26.74"/>
<text text-anchor="start" x="171.07" y="-30.67" font-family="Times,serif" font-size="14.00">leaf 2</text>
<text text-anchor="start" x="155.57" y="-15.67" font-family="Times,serif" font-size="14.00">3,da13f773</text>
</g>
<!-- 1&#45;&gt;3 -->
<g id="edge2" class="edge">
<title>1&#45;&gt;3</title>
<path fill="none" stroke="black" d="M139.67,-91.17C146.45,-82.02 154.27,-71.47 161.56,-61.63"/>
<polygon fill="black" stroke="black" points="164.29,-63.82 167.43,-53.7 158.67,-59.65 164.29,-63.82"/>
</g>
</g>
</svg>
