<?xml version="1.0" encoding="UTF-8" standalone="no"?>
<!DOCTYPE svg PUBLIC "-//W3C//DTD SVG 1.1//EN"
 "http://www.w3.org/Graphics/SVG/1.1/DTD/svg11.dtd">
<!-- Generated by graphviz version 7.1.0 (0)
 -->
<!-- Pages: 1 -->
<svg width="222pt" height="151pt"
 viewBox="0.00 0.00 221.58 151.48" xmlns="http://www.w3.org/2000/svg" xmlns:xlink="http://www.w3.org/1999/xlink">
<g id="graph0" class="graph" transform="scale(1 1) rotate(0) translate(4 147.48)">
<polygon fill="white" stroke="none" points="-4,4 -4,-147.48 217.58,-147.48 217.58,4 -4,4"/>
<!-- 1 -->
<g id="node1" class="node">
<title>1</title>
<ellipse fill="none" stroke="black" cx="107.5" cy="-116.61" rx="56.64" ry="26.74"/>
<text text-anchor="start" x="96.5" y="-120.41" font-family="Times,serif" font-size="14.00">root</text>
<text text-anchor="start" x="75.5" y="-105.41" font-family="Times,serif" font-size="14.00">1,7c508b22</text>
</g>
<!-- 2 -->
<g id="node2" class="node">
<title>2</title>
<ellipse fill="none" stroke="gray" cx="49.5" cy="-26.87" rx="49.49" ry="26.74"/>
<text text-anchor="start" x="29.5" y="-30.67" font-family="Times,serif" font-size="14.00" fill="gray">outside</text>
<text text-anchor="start" x="22.5" y="-15.67" font-family="Times,serif" font-size="14.00" fill="gray">5d7493e7</text>
</g>
<!-- 1&#45;&gt;2 -->
<g id="edge1" class="edge">
<title>1&#45;&gt;2</title>
<path fill="none" stroke="black" d="M91.03,-90.7C85.1,-81.73 78.31,-71.46 71.96,-61.85"/>
<polygon fill="black" stroke="black" points="75.07,-60.21 66.64,-53.8 69.23,-64.07 75.07,-60.21"/>
</g>
<!-- 3 -->
<g id="node3" class="node">
<title>3</title>
<ellipse fill="none" stroke="gray" cx="165.5" cy="-26.87" rx="48.17" ry="26.74"/>
<text text-anchor="start" x="145.5" y="-30.67" font-family="Times,serif" font-size="14.00" fill="gray">outside</text>
<text text-anchor="start" x="139.5" y="-15.67" font-family="Times,serif" font-size="14.00" fill="gray">da13f773</text>
</g>
<!-- 1&#45;&gt;3 -->
<g id="edge2" class="edge">
<title>1&#45;&gt;3</title>
<path fill="none" stroke="black" d="M123.96,-90.7C129.94,-81.66 136.8,-71.28 143.2,-61.61"/>
<polygon fill="black" stroke="black" points="145.96,-63.77 148.56,-53.5 140.12,-59.91 145.96,-63.77"/>
</g>
</g>
</svg>
